<?xml version="1.0" encoding="utf-8"?>
<!-- Generator: Adobe Illustrator 21.1.0, SVG Export Plug-In . SVG Version: 6.00 Build 0)  -->
<svg version="1.1" id="Icons" xmlns="http://www.w3.org/2000/svg" xmlns:xlink="http://www.w3.org/1999/xlink" x="0px" y="0px"
	 viewBox="0 0 233.3 187.5" style="enable-background:new 0 0 233.3 187.5;" xml:space="preserve">
<style type="text/css">
	.st0{fill:#808285;}
	.st1{fill:#FF294A;}
</style>
<g>
	<path class="st1" d="M114.9,21.1c11.2,0,19.9,2.5,27.8,7.4c8.1,5.1,14.3,12,18.5,20.6c2.9,5.9,4.3,12.1,4.8,18.6
		c0.5,6.4-1.1,12.5-3,18.5c-4.3,13-10.8,25.1-17.4,37c-6.4,11.5-13.3,22.7-20.5,33.7c-1.7,2.6-3.4,5.2-5.1,7.7
		c-1,1.4-2.4,1.9-4.1,1.6c-1.3-0.2-2.1-1.1-2.7-2.1c-3.1-4.7-6.2-9.4-9.2-14.1c-5.6-8.6-10.9-17.5-15.9-26.5
		c-5.2-9.3-10.1-18.6-14.2-28.5c-2-4.8-3.8-9.7-5.1-14.7c-1.5-5.8-1.7-11.6-0.7-17.5c1.7-10.6,6.4-19.7,13.9-27.3
		c6.3-6.3,13.8-10.6,22.4-12.8C108.3,21.7,112.4,21.1,114.9,21.1 M158.3,70c0.1-5.5-1.1-10.7-3.2-15.6c-3.4-8-8.8-14.4-16.2-19.1
		c-9.6-6-20-7.8-31-5.5c-11.7,2.5-20.8,9-26.9,19.3C75,59,73.4,69.6,76.8,80.8c2.7,8.8,6.5,17.1,10.6,25.3
		c3.5,6.9,7.2,13.6,11.1,20.2c5.6,9.6,11.5,19.1,17.6,28.4c0.5,0.7,0.7,0.9,1.3,0c2.9-4.5,5.9-9,8.7-13.5c5.9-9.5,11.6-19.1,16.8-29
		c5.3-9.9,10.3-20,13.6-30.8C157.5,77.6,158.4,73.8,158.3,70"/>
	<path class="st1" d="M144.1,70.2c0.1,14.8-12.3,27.4-27.1,27.5c-15.3,0.1-27.7-12-27.8-27.3c-0.1-14.9,11.6-27.5,27.3-27.6
		C132,42.6,144,55,144.1,70.2 M116.7,50.5c-11,0-19.7,8.7-19.7,19.6c0,10.9,8.8,19.8,19.7,19.8c10.9,0,19.7-8.8,19.7-19.7
		C136.4,59.2,127.7,50.5,116.7,50.5"/>
</g>
</svg>
