<?xml version="1.0" encoding="utf-8"?>
<!-- Generator: Adobe Illustrator 21.0.0, SVG Export Plug-In . SVG Version: 6.00 Build 0)  -->
<svg version="1.1" id="圖層_1" xmlns="http://www.w3.org/2000/svg" xmlns:xlink="http://www.w3.org/1999/xlink" x="0px" y="0px"
	 viewBox="0 0 253.8 187.5" style="enable-background:new 0 0 253.8 187.5;" xml:space="preserve">
<style type="text/css">
	.st0{fill:#808285;}
</style>
<g id="Group-5_2_" transform="translate(304.000000, 6.000000)">
	<g>
		<path class="st0" d="M-113.6,132.6c-3.2-5.6-8-9-14.2-10.6c-6.2-1.6-12.5-2.9-18.5-5.1c-3.9-1.4-7.6-3.2-10.7-6
			c-4.6-4-5.6-8.7-2.9-14.3c0.7-1.5,1.4-2.9,2.5-4.1c7.8-8.4,10.3-18.7,10.4-29.7c0.1-5.7,0.4-11.4-0.6-17
			c-2.7-15-15.5-23.3-29.5-23.8c-14,0.6-26.8,8.8-29.5,23.8c-1,5.7-0.7,11.4-0.6,17c0.2,11,2.6,21.3,10.4,29.7
			c1.1,1.2,1.8,2.6,2.5,4.1c2.6,5.6,1.7,10.3-2.9,14.3c-3.1,2.8-6.8,4.6-10.7,6c-6,2.2-12.3,3.5-18.5,5.1c-6.2,1.5-11,5-14.2,10.6
			c-2.3,4-3.4,8.4-3.3,13c0.1,8.3-0.7,7.9,7.6,7.9H-118c8.3,0,7.6,0.4,7.6-7.9C-110.3,140.9-111.3,136.6-113.6,132.6z M-119.3,148.3
			c-19.3-0.2-38.5-0.1-57.8-0.1s-38.5-0.1-57.8,0.1c-3.4,0-3.9-1.2-3.7-4.1c0.7-9,5.5-15,14.3-17.3c4.6-1.2,9.3-2.1,13.9-3.4
			c7.7-2.1,14.7-5.3,19.9-11.7c2-2.5,3-5.1,3-8.4c0.1-5.6-2-10.3-5.5-14.5c-3.7-4.5-7.1-9.4-7.8-15.4c-1.1-8.7-2-17.4-0.6-26.1
			c1.8-11.1,10.5-18.6,23.5-20c0.2,0,0.5-0.1,0.7-0.1s0.5,0.1,0.7,0.1c13,1.4,21.7,8.9,23.5,20c1.4,8.8,0.5,17.5-0.6,26.1
			c-0.7,6-4,10.9-7.8,15.4c-3.5,4.2-5.6,8.9-5.5,14.5c0,3.3,1,5.9,3,8.4c5.2,6.3,12.2,9.6,19.9,11.7c4.6,1.3,9.3,2.2,13.9,3.4
			c8.8,2.3,13.7,8.3,14.3,17.3C-115.4,147.1-115.9,148.3-119.3,148.3z"/>
	</g>
</g>
</svg>
