<?xml version="1.0" encoding="utf-8"?>
<!-- Generator: Adobe Illustrator 21.0.0, SVG Export Plug-In . SVG Version: 6.00 Build 0)  -->
<svg version="1.1" id="圖層_1" xmlns="http://www.w3.org/2000/svg" xmlns:xlink="http://www.w3.org/1999/xlink" x="0px" y="0px"
	 viewBox="0 0 253.8 187.5" style="enable-background:new 0 0 253.8 187.5;" xml:space="preserve">
<style type="text/css">
	.st0{fill:#808285;}
	.st1{font-family:'Muli-Regular';}
	.st2{font-size:50px;}
</style>
<g>
	<path class="st0" d="M189.9,22.4h-126c-4.7,0-11,6.4-11.1,13.8c-0.1,21.9-0.1,43.8,0.1,65.6c0.1,7.7,5.7,13.2,13.3,13.2
		c20.2,0.1,40.4,0.1,60.7,0.1s40.5-0.1,60.7-0.1c7.7,0,13.3-5.6,13.3-13.2C201,80,201,58.1,201,36.2
		C200.9,28.8,194.6,22.4,189.9,22.4z M58.6,37.9c0.1-6.7,2.9-9.4,9.8-9.4h117.1c6.8,0,9.6,2.7,9.8,9.4c0.1,9.5,0.1,9.5-9.4,9.5H68
		C58.5,47.4,58.5,47.4,58.6,37.9z M195.1,99.8c0,6.7-2.9,9.5-9.7,9.5h-117c-6.8,0-9.7-2.8-9.7-9.5c-0.1-10,0.1-20-0.1-30
		c-0.1-2.8,0.8-3.4,3.5-3.4c21.6,0.1,43.2,0.1,64.8,0.1s43.2,0.1,64.8-0.1c2.7,0,3.6,0.6,3.5,3.4C195.1,79.8,195.2,89.8,195.1,99.8z
		"/>
</g>
<text transform="matrix(1 0 0 1 71.2177 173)" class="st0 st1 st2">Card</text>
</svg>
