<?xml version="1.0" encoding="utf-8"?>
<!-- Generator: Adobe Illustrator 21.1.0, SVG Export Plug-In . SVG Version: 6.00 Build 0)  -->
<svg version="1.1" id="Icons" xmlns="http://www.w3.org/2000/svg" xmlns:xlink="http://www.w3.org/1999/xlink" x="0px" y="0px"
	 viewBox="0 0 233.3 187.5" style="enable-background:new 0 0 233.3 187.5;" xml:space="preserve">
<style type="text/css">
	.st0{fill:#808285;}
	.st1{fill:#FF294A;}
	.st2{fill:#FFFFFF;}
	.st3{fill:none;stroke:#D1D3D4;stroke-width:0.5;stroke-linecap:square;}
	.st4{fill:#231F20;}
	.st5{clip-path:url(#SVGID_2_);}
	.st6{clip-path:url(#SVGID_4_);}
	.st7{fill-rule:evenodd;clip-rule:evenodd;fill:#FFFFFF;}
	.st8{opacity:0.4;}
	.st9{enable-background:new    ;}
	.st10{fill:none;stroke:#C2C2C2;stroke-width:2;}
	.st11{fill:#B0B0B0;fill-opacity:0.776;}
	.st12{opacity:0.776;fill:#B0B0B0;}
	.st13{fill:none;stroke:#FF294A;stroke-miterlimit:10;}
	.st14{fill:none;stroke:#FFFFFF;stroke-width:6;}
</style>
<path class="st1" d="M60.7,160.1c-3.1-0.5-5.9-1.5-8-4.1c-3-3.8-3.1-8.9-0.2-12.8c0.7-0.9,1.4-1.6,2.2-2.4
	c17.5-17.5,35.1-35.1,52.6-52.6c1.7-1.7,1.7-1.7,0-3.5C89.7,67,72,49.3,54.3,31.7c-3.2-3.2-4.7-6.8-3.4-11.3
	c2-6.9,10.4-9.7,16.1-5.4c0.8,0.6,1.5,1.2,2.2,1.9C89.6,37.3,110,57.6,130.3,78c4.3,4.3,5.2,9.1,2.6,13.7c-0.7,1.2-1.6,2.2-2.5,3.1
	c-20.4,20.4-40.9,40.8-61.3,61.3c-2.3,2.3-4.9,3.5-8.1,4H60.7z"/>
<path class="st1" d="M198.4,87.2c-0.6,3.4-2.4,5.9-4.8,8.3c-20.2,20.2-40.4,40.4-60.6,60.6c-4.6,4.6-10.3,5.1-14.8,1.5
	c-4.4-3.5-5.1-10.2-1.5-14.6c0.7-0.8,1.4-1.5,2.1-2.2c17.5-17.5,35-35.1,52.6-52.6c1.4-1.4,1.4-2.1,0-3.4
	c-17.8-17.7-35.6-35.5-53.3-53.2c-4.1-4.1-4.9-8.7-2.4-13.2c3.2-5.7,10.7-7,15.7-2.9c0.7,0.6,1.4,1.3,2.1,2c20,20,40,40.1,60.1,60
	c2.4,2.4,4.2,4.9,4.8,8.3V87.2z"/>
</svg>
