<?xml version="1.0" encoding="utf-8"?>
<!-- Generator: Adobe Illustrator 21.1.0, SVG Export Plug-In . SVG Version: 6.00 Build 0)  -->
<svg version="1.1" id="Icons" xmlns="http://www.w3.org/2000/svg" xmlns:xlink="http://www.w3.org/1999/xlink" x="0px" y="0px"
	 viewBox="0 0 233.3 187.5" style="enable-background:new 0 0 233.3 187.5;" xml:space="preserve">
<style type="text/css">
	.st0{fill:#808285;}
	.st1{fill:#FF294A;}
	.st2{fill:#FFFFFF;}
	.st3{fill:none;stroke:#D1D3D4;stroke-width:0.5;stroke-linecap:square;}
	.st4{fill:#231F20;}
	.st5{clip-path:url(#SVGID_2_);}
	.st6{clip-path:url(#SVGID_4_);}
	.st7{fill-rule:evenodd;clip-rule:evenodd;fill:#FFFFFF;}
	.st8{opacity:0.4;}
	.st9{enable-background:new    ;}
	.st10{fill:none;stroke:#C2C2C2;stroke-width:2;}
	.st11{fill:#B0B0B0;fill-opacity:0.776;}
	.st12{opacity:0.776;fill:#B0B0B0;}
	.st13{fill:none;stroke:#FF294A;stroke-miterlimit:10;}
	.st14{fill:none;stroke:#FFFFFF;stroke-width:6;}
</style>
<g id="Page-1-Copy-7_2_" transform="translate(164.000000, 445.000000)">
	<path id="Stroke-1_1_" class="st14" d="M25.3-350.9c0,40.1-32.5,72.6-72.6,72.6s-72.6-32.5-72.6-72.6s32.5-72.6,72.6-72.6
		S25.3-391,25.3-350.9z"/>
</g>
<g>
	<g>
		<g>
			<g>
				<path class="st2" d="M127.3,132.4c-0.7,0-1.4-0.3-1.9-0.8l-29.9-29.9c-1.2-1.2-1.9-2.8-1.9-4.6c0-1.7,0.7-3.3,1.9-4.6l10.8-10.8
					c1.1-1.1,2.8-1.1,3.8,0c1.1,1.1,1.1,2.8,0,3.8L99.3,96.4C99,96.7,99,97,99,97.2c0,0.2,0,0.5,0.3,0.7l28,28L156,98.4
					c4.1-4.1,4-11.1-0.4-15.4L133.7,61c-1.1-1.1-1.1-2.8,0-3.8c1.1-1.1,2.8-1.1,3.8,0l21.9,21.9c3.1,3.1,4.9,7.2,5,11.6
					c0.1,4.4-1.6,8.5-4.6,11.5l-30.6,29.4C128.6,132.2,127.9,132.4,127.3,132.4z"/>
			</g>
			<g>
				<path class="st2" d="M100.8,133.6c-0.7,0-1.4-0.3-1.9-0.8l-24.9-24.9c-6.5-6.5-6.6-16.8-0.3-23.1l30.6-29.4c1.1-1,2.7-1,3.8,0
					l29.9,29.9c1.2,1.2,1.9,2.8,1.9,4.6c0,1.7-0.7,3.3-1.9,4.6L127,105.2c-1.1,1.1-2.8,1.1-3.8,0c-1.1-1.1-1.1-2.8,0-3.8L134,90.6
					c0.3-0.3,0.3-0.6,0.3-0.7c0-0.2,0-0.5-0.3-0.7l-28-28L77.3,88.6c-4.1,4.1-4,11.1,0.4,15.4l24.9,24.9c1.1,1.1,1.1,2.8,0,3.8
					C102.1,133.3,101.4,133.6,100.8,133.6z"/>
			</g>
		</g>
	</g>
</g>
</svg>
