<?xml version="1.0" encoding="utf-8"?>
<!-- Generator: Adobe Illustrator 21.1.0, SVG Export Plug-In . SVG Version: 6.00 Build 0)  -->
<svg version="1.1" id="Icons" xmlns="http://www.w3.org/2000/svg" xmlns:xlink="http://www.w3.org/1999/xlink" x="0px" y="0px"
	 viewBox="0 0 233.3 187.5" style="enable-background:new 0 0 233.3 187.5;" xml:space="preserve">
<style type="text/css">
	.st0{fill:#808285;}
	.st1{fill:#FF294A;}
</style>
<path class="st1" d="M154.4,170.3H85.8c-0.3-0.1-0.5-0.2-0.8-0.3c-5-1.7-7.9-5.2-8.4-10.5c-0.3-3-0.3-6-0.5-9
	c-0.3-6.1-0.6-12.2-0.9-18.4c-0.6-10.2-1.1-20.5-1.7-30.7c-0.3-6.3-0.6-12.6-0.9-18.9c-0.6-10.7-1.2-21.4-1.7-32
	c-0.1-1.4-0.5-2-1.9-1.8c-0.3,0-0.7,0-1,0c-3.5,0-3.2,0.4-3.2-3.2c0-2.8,0-2.8,2.8-2.8c8.1,0,16.2,0,24.4,0c1.4,0,1.9-0.5,1.9-1.9
	c-0.1-1.2,0-2.4,0-3.6c0.3-6.8,5.1-11.9,11.7-12c9.8-0.1,19.6-0.1,29.5,0c5.5,0,10.3,4.2,11.2,9.7c0.3,1.7,0.2,3.5,0.2,5.2
	c0,2.5,0,2.5,2.5,2.5c7.6,0,15.2,0,22.8,0c1.2,0,2.4,0.1,3.6,0.1v5.8c-1.4,0-2.7,0.1-4.1,0.1c-1.2,0-1.6,0.5-1.7,1.6
	c-0.7,13.2-1.3,26.3-2,39.5c-0.5,9.3-1,18.5-1.4,27.8c-0.6,12.4-1.2,24.8-1.8,37.1c-0.1,1.8-0.1,3.7-0.4,5.5
	C162.8,165.6,159.5,168.9,154.4,170.3 M120.1,48.6c-13.3,0-26.6,0-39.9,0c-3.6,0-3.5-0.6-3.3,3.5c0.8,13,1.4,26,2.1,39
	c0.5,9.1,1,18.3,1.4,27.4c0.6,12.2,1.2,24.4,1.8,36.6c0.1,1.4,0.2,2.8,0.3,4.2c0.3,3,2.8,5,6.3,5c20.6,0,41.2,0,61.7,0
	c4.9,0,7-2,7.1-7c0.1-3.1,0.2-6.2,0.4-9.3c0.4-8.3,0.9-16.7,1.3-25.1c0.3-6.7,0.6-13.3,1-20c0.5-10.1,1.1-20.2,1.6-30.3
	c0.4-7.3,0.8-14.7,1.2-22c0.1-2,0-2.2-2-2.2C147.6,48.6,133.9,48.6,120.1,48.6 M119.9,42.6c6.1,0,12.2,0,18.4,0
	c1.3,0,1.9-0.4,1.8-1.8c-0.1-1.3,0-2.5,0-3.8c-0.1-3.6-2.2-5.7-5.7-5.8c-3,0-5.9,0-8.9,0c-6.6,0-13.2,0-19.8,0
	c-3.5,0-5.7,2.2-5.7,5.6c0,1.3,0.1,2.5,0,3.8c-0.1,1.4,0.4,1.9,1.8,1.9C107.7,42.6,113.8,42.6,119.9,42.6"/>
<path class="st1" d="M134.5,149.9c0.6-8.4,1.1-17,1.7-25.6c0.3-5.1,0.6-10.2,0.9-15.3c0.6-8.8,1.1-17.7,1.7-26.5
	c0.4-6.8,0.8-13.6,1.2-20.4c0.1-2.3,0.1-2.3,2.5-2.3c3.7,0.1,3.8,0.1,3.6,3.7c-0.6,10.6-1.3,21.3-2,31.9c-0.5,8.5-1,17-1.5,25.5
	c-0.6,10.2-1.3,20.5-2,30.7c-0.1,1.2-0.6,1.7-1.7,1.5c-0.5-0.1-1.1,0-1.6-0.1C134,152.7,134.4,153.4,134.5,149.9"/>
<path class="st1" d="M96.9,60.2c2.8-0.2,2.8-0.2,3,2.5c0.4,5.5,0.7,11.1,1.1,16.6c0.6,8.4,1.1,16.8,1.6,25.2
	c0.4,6.8,0.8,13.6,1.3,20.4c0.5,8.4,1.1,16.8,1.6,25.2c0,0,0,0.1,0,0.1c0.3,2.6,0.2,2.6-2.4,2.9c-3.6,0.4-3.6,0.3-3.8-3.3
	c-0.5-8.5-1.1-17.1-1.6-25.6c-0.4-6.8-0.8-13.6-1.3-20.4c-0.5-8.4-1.1-16.8-1.7-25.2c-0.3-5.4-0.7-10.9-1-16.3
	c-0.1-2.1-0.1-2.1,2-2.2C96.2,60.2,96.6,60.2,96.9,60.2"/>
<path class="st1" d="M123,106.5v44.4c0,2.2,0,2.2-2.2,2.2c-4.5,0-3.8,0.3-3.8-3.8c0-29,0-57.9,0-86.9c0-2.6,0-2.6,2.6-2.6
	c4,0,3.5-0.3,3.5,3.4C123,77.7,123,92.1,123,106.5"/>
</svg>
