<?xml version="1.0" encoding="utf-8"?>
<!-- Generator: Adobe Illustrator 21.0.2, SVG Export Plug-In . SVG Version: 6.00 Build 0)  -->
<svg version="1.1" id="Layer_1" xmlns="http://www.w3.org/2000/svg" xmlns:xlink="http://www.w3.org/1999/xlink" x="0px" y="0px"
	 width="500px" height="500px" viewBox="0 0 500 500" enable-background="new 0 0 500 500" xml:space="preserve">
<symbol  id="sephora-symbol" viewBox="-47.6 -6 95.1 12">
	<path fill="#231F20" d="M-43.7-0.9c-0.6-0.2-1.3-0.5-1.8-0.9C-45.8-2.1-46-2.6-46-3.1c0-1,0.9-1.8,1.9-1.7c0.1,0,0.1,0,0.2,0
		c0.9,0,1.7,0.6,1.9,1.4l1.5-0.2C-41-5.1-42.4-6.1-43.9-6c-2.1-0.1-3.4,1-3.5,2.8c-0.1,0.8,0.2,1.7,0.8,2.3c0.7,0.6,1.5,1,2.3,1.2
		c1.5,0.6,2.3,1,2.2,2.3c-0.1,1-1,1.7-2,1.7c-0.1,0-0.1,0-0.2,0c-0.9,0-1.6-0.5-2-1.2l-1.4,0.3c0.5,1.4,1.8,2.3,3.3,2.2
		c2.1,0.1,3.7-1.2,3.7-2.9S-41.6-0.1-43.7-0.9"/>
	<polygon fill="#231F20" points="-33.7,5.5 -28,5.5 -28,4.2 -32.3,4.2 -32.3,0.4 -28,0.4 -28,-0.8 -32.3,-0.8 -32.3,-4.3 -28,-4.3 
		-28,-5.6 -33.7,-5.6 	"/>
	<path fill="#231F20" d="M-20.3,5.2h1.4V1.4h1.2c2,0.2,3.7-1.3,3.9-3.3c0-0.1,0-0.2,0-0.3c0-2.2-1.5-3.7-4.2-3.7h-2.3V5.2z M-18.8,0
		v-4.6h0.9c1.8,0,2.7,0.8,2.7,2.3c0.1,1.2-0.9,2.3-2.1,2.3c-0.1,0-0.3,0-0.4,0H-18.8z"/>
	<polygon fill="#231F20" points="-7,5.6 -5.5,5.6 -5.5,0.6 0.3,0.6 0.3,5.6 1.7,5.6 1.7,-5.5 0.3,-5.5 0.3,-0.7 -5.5,-0.7 
		-5.5,-5.5 -7,-5.5 	"/>
	<path fill="#231F20" d="M13.2,6c1.5,0.1,2.9-0.5,4-1.5c1.1-1.1,1.7-2.6,1.7-4.2c0-1.6-0.6-3.1-1.7-4.2c-2.3-2-5.7-2-8,0
		C8-2.9,7.4-1.4,7.4,0.2c0,1.6,0.6,3.1,1.7,4.2C10.2,5.5,11.7,6,13.2,6 M13.1,4.7c-1.1,0-2.2-0.4-3-1.2C9.3,2.6,8.8,1.4,8.9,0.2
		c0-1.2,0.4-2.4,1.3-3.3c1.7-1.6,4.3-1.6,5.9,0C17-2.2,17.4-1,17.4,0.2c0,1.2-0.4,2.4-1.3,3.3C15.3,4.3,14.3,4.7,13.1,4.7"/>
	<path fill="#231F20" d="M24.4,5.2h1.4V0.7l3.9,4.5h1.8l-3.9-4.3h0.1c1.8,0.1,3.3-1.4,3.3-3.1c0-0.1,0-0.2,0-0.3
		c0-2.1-1.5-3.4-4.2-3.4h-2.5V5.2z M25.8-0.2v-4.4h1c1.9,0,2.8,0.8,2.8,2.1s-1,2.3-2.8,2.3L25.8-0.2L25.8-0.2z"/>
	<path fill="#231F20" d="M37.1,5.2h1.5l1-2.6h5.2l1,2.6h1.7L42.9-5.9h-1.2L37.1,5.2z M40.1,1.3l1.8-4.4c0-0.1,0.2-0.5,0.3-1
		c0.2,0.6,0.3,0.9,0.3,1l1.7,4.4H40.1L40.1,1.3z"/>
</symbol>
<title>sephora</title>
<use xlink:href="#sephora-symbol"  width="95.1" height="12" x="-47.6" y="-6" transform="matrix(4.8421 0 0 4.8421 250.1982 250.0358)" overflow="visible"/>
</svg>
